999
"DXF R12 Output" (www.mydxf.blogspot.com)
 0 
SECTION
 2 
HEADER
 9 
$ACADVER
 1 
AC1009
 9 
$EXTMIN
 10 
 0 
 20 
 0 
 9 
$EXTMAX
 10 
 8.5 
 20 
 11 
 0 
ENDSEC
 0 
SECTION
 2 
ENTITIES
0
POLYLINE
8
Layer 1
62
7
70
0
10
0.000000
20
0.000000
66
1
0
VERTEX
8
Layer 1
10
0.000000
20
89.958300
70
0
0
VERTEX
8
Layer 1
10
203.993493
20
89.958300
70
0
0
VERTEX
8
Layer 1
10
203.993493
20
0.000080
70
0
0
VERTEX
8
Layer 1
10
0.000000
20
0.000080
70
0
0
VERTEX
8
Layer 1
10
0.000000
20
89.958300
70
0
0
SEQEND
8
Layer 1
0
POLYLINE
8
Layer 1
62
7
70
0
10
0.000000
20
0.000000
66
1
0
VERTEX
8
Layer 1
10
0.000000
20
89.958300
70
0
0
VERTEX
8
Layer 1
10
203.993493
20
89.958300
70
0
0
VERTEX
8
Layer 1
10
203.993493
20
0.000080
70
0
0
VERTEX
8
Layer 1
10
0.000000
20
0.000080
70
0
0
VERTEX
8
Layer 1
10
0.000000
20
89.958300
70
0
0
SEQEND
8
Layer 1
0
POLYLINE
8
Layer 1
62
7
70
1
10
0.000000
20
0.000000
66
1
0
VERTEX
8
Layer 1
10
106.438037
20
46.528853
70
0
0
VERTEX
8
Layer 1
10
107.798787
20
46.528853
70
0
0
VERTEX
8
Layer 1
10
107.798787
20
47.889603
70
0
0
VERTEX
8
Layer 1
10
111.880774
20
47.889603
70
0
0
VERTEX
8
Layer 1
10
111.880774
20
46.528853
70
0
0
VERTEX
8
Layer 1
10
113.241524
20
46.528853
70
0
0
VERTEX
8
Layer 1
10
113.241524
20
37.003865
70
0
0
VERTEX
8
Layer 1
10
110.520023
20
37.003865
70
0
0
VERTEX
8
Layer 1
10
110.520023
20
45.168102
70
0
0
VERTEX
8
Layer 1
10
106.438037
20
45.168102
70
0
0
VERTEX
8
Layer 1
10
106.438037
20
37.003865
70
0
0
VERTEX
8
Layer 1
10
103.716536
20
37.003865
70
0
0
VERTEX
8
Layer 1
10
103.716536
20
47.889603
70
0
0
VERTEX
8
Layer 1
10
106.438037
20
47.889603
70
0
0
VERTEX
8
Layer 1
10
106.438037
20
46.528853
70
0
0
VERTEX
8
Layer 1
10
106.438037
20
46.528853
70
0
0
SEQEND
8
Layer 1
0
POLYLINE
8
Layer 1
62
7
70
1
10
0.000000
20
0.000000
66
1
0
VERTEX
8
Layer 1
10
98.689459
20
50.535433
70
0
0
VERTEX
8
Layer 1
10
101.410960
20
50.535433
70
0
0
VERTEX
8
Layer 1
10
101.410960
20
47.813932
70
0
0
VERTEX
8
Layer 1
10
98.689459
20
47.813932
70
0
0
VERTEX
8
Layer 1
10
98.689459
20
50.535433
70
0
0
VERTEX
8
Layer 1
10
98.689459
20
50.535433
70
0
0
SEQEND
8
Layer 1
0
POLYLINE
8
Layer 1
62
7
70
1
10
0.000000
20
0.000000
66
1
0
VERTEX
8
Layer 1
10
98.689459
20
46.453182
70
0
0
VERTEX
8
Layer 1
10
101.410960
20
46.453182
70
0
0
VERTEX
8
Layer 1
10
101.410960
20
36.928194
70
0
0
VERTEX
8
Layer 1
10
98.689459
20
36.928194
70
0
0
VERTEX
8
Layer 1
10
98.689459
20
46.453182
70
0
0
VERTEX
8
Layer 1
10
98.689459
20
46.453182
70
0
0
SEQEND
8
Layer 1
0
POLYLINE
8
Layer 1
62
7
70
1
10
0.000000
20
0.000000
66
1
0
VERTEX
8
Layer 1
10
94.456131
20
50.535433
70
0
0
VERTEX
8
Layer 1
10
97.177632
20
50.535433
70
0
0
VERTEX
8
Layer 1
10
97.177632
20
36.928194
70
0
0
VERTEX
8
Layer 1
10
94.456131
20
36.928194
70
0
0
VERTEX
8
Layer 1
10
94.456131
20
50.535433
70
0
0
VERTEX
8
Layer 1
10
94.456131
20
50.535433
70
0
0
SEQEND
8
Layer 1
0
POLYLINE
8
Layer 1
62
7
70
1
10
0.000000
20
0.000000
66
1
0
VERTEX
8
Layer 1
10
84.968978
20
38.364615
70
0
0
VERTEX
8
Layer 1
10
83.608228
20
38.364615
70
0
0
VERTEX
8
Layer 1
10
83.608228
20
42.446866
70
0
0
VERTEX
8
Layer 1
10
84.968978
20
42.446866
70
0
0
VERTEX
8
Layer 1
10
84.968978
20
43.807352
70
0
0
VERTEX
8
Layer 1
10
90.411715
20
43.807352
70
0
0
VERTEX
8
Layer 1
10
90.411715
20
45.168102
70
0
0
VERTEX
8
Layer 1
10
83.608228
20
45.168102
70
0
0
VERTEX
8
Layer 1
10
83.608228
20
46.528853
70
0
0
VERTEX
8
Layer 1
10
84.968978
20
46.528853
70
0
0
VERTEX
8
Layer 1
10
84.968978
20
47.889603
70
0
0
VERTEX
8
Layer 1
10
91.772466
20
47.889603
70
0
0
VERTEX
8
Layer 1
10
91.772466
20
46.528853
70
0
0
VERTEX
8
Layer 1
10
93.133216
20
46.528853
70
0
0
VERTEX
8
Layer 1
10
93.133216
20
37.003865
70
0
0
VERTEX
8
Layer 1
10
90.411715
20
37.003865
70
0
0
VERTEX
8
Layer 1
10
90.411715
20
38.364615
70
0
0
VERTEX
8
Layer 1
10
89.050965
20
38.364615
70
0
0
VERTEX
8
Layer 1
10
89.050965
20
37.003865
70
0
0
VERTEX
8
Layer 1
10
84.968978
20
37.003865
70
0
0
VERTEX
8
Layer 1
10
84.968978
20
38.364615
70
0
0
VERTEX
8
Layer 1
10
84.968978
20
38.364615
70
0
0
SEQEND
8
Layer 1
0
POLYLINE
8
Layer 1
62
7
70
1
10
0.000000
20
0.000000
66
1
0
VERTEX
8
Layer 1
10
86.329729
20
39.725365
70
0
0
VERTEX
8
Layer 1
10
90.411715
20
39.725365
70
0
0
VERTEX
8
Layer 1
10
90.411715
20
41.086116
70
0
0
VERTEX
8
Layer 1
10
86.329729
20
41.086116
70
0
0
VERTEX
8
Layer 1
10
86.329729
20
39.725365
70
0
0
VERTEX
8
Layer 1
10
86.329729
20
39.725365
70
0
0
SEQEND
8
Layer 1
0
POLYLINE
8
Layer 1
62
7
70
1
10
0.000000
20
0.000000
66
1
0
VERTEX
8
Layer 1
10
75.406155
20
46.453182
70
0
0
VERTEX
8
Layer 1
10
76.766905
20
46.453182
70
0
0
VERTEX
8
Layer 1
10
76.766905
20
49.174683
70
0
0
VERTEX
8
Layer 1
10
78.127656
20
49.174683
70
0
0
VERTEX
8
Layer 1
10
78.127656
20
50.535433
70
0
0
VERTEX
8
Layer 1
10
79.488406
20
50.535433
70
0
0
VERTEX
8
Layer 1
10
79.488406
20
46.453182
70
0
0
VERTEX
8
Layer 1
10
82.209642
20
46.453182
70
0
0
VERTEX
8
Layer 1
10
82.209642
20
43.731946
70
0
0
VERTEX
8
Layer 1
10
79.488406
20
43.731946
70
0
0
VERTEX
8
Layer 1
10
79.488406
20
39.649695
70
0
0
VERTEX
8
Layer 1
10
82.209642
20
39.649695
70
0
0
VERTEX
8
Layer 1
10
82.209642
20
36.928194
70
0
0
VERTEX
8
Layer 1
10
78.127656
20
36.928194
70
0
0
VERTEX
8
Layer 1
10
78.127656
20
38.288944
70
0
0
VERTEX
8
Layer 1
10
76.766905
20
38.288944
70
0
0
VERTEX
8
Layer 1
10
76.766905
20
43.731946
70
0
0
VERTEX
8
Layer 1
10
75.406155
20
43.731946
70
0
0
VERTEX
8
Layer 1
10
75.406155
20
46.453182
70
0
0
VERTEX
8
Layer 1
10
75.406155
20
46.453182
70
0
0
SEQEND
8
Layer 1
0
POLYLINE
8
Layer 1
62
7
70
1
10
0.000000
20
0.000000
66
1
0
VERTEX
8
Layer 1
10
65.919002
20
38.364615
70
0
0
VERTEX
8
Layer 1
10
64.558252
20
38.364615
70
0
0
VERTEX
8
Layer 1
10
64.558252
20
42.446866
70
0
0
VERTEX
8
Layer 1
10
65.919002
20
42.446866
70
0
0
VERTEX
8
Layer 1
10
65.919002
20
43.807352
70
0
0
VERTEX
8
Layer 1
10
71.361739
20
43.807352
70
0
0
VERTEX
8
Layer 1
10
71.361739
20
45.168102
70
0
0
VERTEX
8
Layer 1
10
64.558252
20
45.168102
70
0
0
VERTEX
8
Layer 1
10
64.558252
20
46.528853
70
0
0
VERTEX
8
Layer 1
10
65.919002
20
46.528853
70
0
0
VERTEX
8
Layer 1
10
65.919002
20
47.889603
70
0
0
VERTEX
8
Layer 1
10
72.722490
20
47.889603
70
0
0
VERTEX
8
Layer 1
10
72.722490
20
46.528853
70
0
0
VERTEX
8
Layer 1
10
74.083240
20
46.528853
70
0
0
VERTEX
8
Layer 1
10
74.083240
20
37.003865
70
0
0
VERTEX
8
Layer 1
10
71.361739
20
37.003865
70
0
0
VERTEX
8
Layer 1
10
71.361739
20
38.364615
70
0
0
VERTEX
8
Layer 1
10
70.000989
20
38.364615
70
0
0
VERTEX
8
Layer 1
10
70.000989
20
37.003865
70
0
0
VERTEX
8
Layer 1
10
65.919002
20
37.003865
70
0
0
VERTEX
8
Layer 1
10
65.919002
20
38.364615
70
0
0
VERTEX
8
Layer 1
10
65.919002
20
38.364615
70
0
0
SEQEND
8
Layer 1
0
POLYLINE
8
Layer 1
62
7
70
1
10
0.000000
20
0.000000
66
1
0
VERTEX
8
Layer 1
10
67.279753
20
39.725365
70
0
0
VERTEX
8
Layer 1
10
71.361739
20
39.725365
70
0
0
VERTEX
8
Layer 1
10
71.361739
20
41.086116
70
0
0
VERTEX
8
Layer 1
10
67.279753
20
41.086116
70
0
0
VERTEX
8
Layer 1
10
67.279753
20
39.725365
70
0
0
VERTEX
8
Layer 1
10
67.279753
20
39.725365
70
0
0
SEQEND
8
Layer 1
0
POLYLINE
8
Layer 1
62
7
70
1
10
0.000000
20
0.000000
66
1
0
VERTEX
8
Layer 1
10
60.513836
20
41.010445
70
0
0
VERTEX
8
Layer 1
10
63.235337
20
41.010445
70
0
0
VERTEX
8
Layer 1
10
63.235337
20
38.288944
70
0
0
VERTEX
8
Layer 1
10
61.874587
20
38.288944
70
0
0
VERTEX
8
Layer 1
10
61.874587
20
36.928194
70
0
0
VERTEX
8
Layer 1
10
55.071099
20
36.928194
70
0
0
VERTEX
8
Layer 1
10
55.071099
20
38.288944
70
0
0
VERTEX
8
Layer 1
10
53.710349
20
38.288944
70
0
0
VERTEX
8
Layer 1
10
53.710349
20
49.174683
70
0
0
VERTEX
8
Layer 1
10
55.071099
20
49.174683
70
0
0
VERTEX
8
Layer 1
10
55.071099
20
50.535433
70
0
0
VERTEX
8
Layer 1
10
61.874587
20
50.535433
70
0
0
VERTEX
8
Layer 1
10
61.874587
20
49.174683
70
0
0
VERTEX
8
Layer 1
10
63.235337
20
49.174683
70
0
0
VERTEX
8
Layer 1
10
63.235337
20
46.453182
70
0
0
VERTEX
8
Layer 1
10
60.513836
20
46.453182
70
0
0
VERTEX
8
Layer 1
10
60.513836
20
47.813932
70
0
0
VERTEX
8
Layer 1
10
57.792600
20
47.813932
70
0
0
VERTEX
8
Layer 1
10
57.792600
20
46.453182
70
0
0
VERTEX
8
Layer 1
10
56.431850
20
46.453182
70
0
0
VERTEX
8
Layer 1
10
56.431850
20
41.010445
70
0
0
VERTEX
8
Layer 1
10
57.792600
20
41.010445
70
0
0
VERTEX
8
Layer 1
10
57.792600
20
39.649695
70
0
0
VERTEX
8
Layer 1
10
60.513836
20
39.649695
70
0
0
VERTEX
8
Layer 1
10
60.513836
20
41.010445
70
0
0
VERTEX
8
Layer 1
10
60.513836
20
41.010445
70
0
0
SEQEND
8
Layer 1
0
POLYLINE
8
Layer 1
62
7
70
1
10
0.000000
20
0.000000
66
1
0
VERTEX
8
Layer 1
10
104.088804
20
51.850675
70
0
0
VERTEX
8
Layer 1
10
103.776861
20
50.934424
70
0
0
VERTEX
8
Layer 1
10
103.716536
20
50.494158
70
0
0
VERTEX
8
Layer 1
10
103.716536
20
49.915250
70
0
0
VERTEX
8
Layer 1
10
103.817264
20
49.352102
70
0
0
VERTEX
8
Layer 1
10
104.091946
20
48.892240
70
0
0
VERTEX
8
Layer 1
10
104.499334
20
48.582199
70
0
0
VERTEX
8
Layer 1
10
104.998176
20
48.468511
70
0
0
VERTEX
8
Layer 1
10
105.488217
20
48.578048
70
0
0
VERTEX
8
Layer 1
10
105.891144
20
48.877291
70
0
0
VERTEX
8
Layer 1
10
106.048041
20
49.053239
70
0
0
VERTEX
8
Layer 1
10
106.627511
20
49.638331
70
0
0
VERTEX
8
Layer 1
10
107.304811
20
49.915250
70
0
0
VERTEX
8
Layer 1
10
108.330334
20
49.915250
70
0
0
VERTEX
8
Layer 1
10
109.007634
20
49.638331
70
0
0
VERTEX
8
Layer 1
10
109.587104
20
49.053239
70
0
0
VERTEX
8
Layer 1
10
109.744266
20
48.877291
70
0
0
VERTEX
8
Layer 1
10
110.146961
20
48.578048
70
0
0
VERTEX
8
Layer 1
10
110.636969
20
48.468511
70
0
0
VERTEX
8
Layer 1
10
111.135811
20
48.582199
70
0
0
VERTEX
8
Layer 1
10
111.543199
20
48.892240
70
0
0
VERTEX
8
Layer 1
10
111.817881
20
49.352102
70
0
0
VERTEX
8
Layer 1
10
111.918609
20
49.915250
70
0
0
VERTEX
8
Layer 1
10
111.918609
20
50.494158
70
0
0
VERTEX
8
Layer 1
10
111.858284
20
50.934424
70
0
0
VERTEX
8
Layer 1
10
111.546341
20
51.850675
70
0
0
VERTEX
8
Layer 1
10
111.495541
20
51.968944
70
0
0
VERTEX
8
Layer 1
10
110.546217
20
53.509875
70
0
0
VERTEX
8
Layer 1
10
110.129565
20
53.843812
70
0
0
VERTEX
8
Layer 1
10
109.611710
20
53.966810
70
0
0
VERTEX
8
Layer 1
10
106.023435
20
53.966810
70
0
0
VERTEX
8
Layer 1
10
105.505580
20
53.843812
70
0
0
VERTEX
8
Layer 1
10
105.088928
20
53.509875
70
0
0
VERTEX
8
Layer 1
10
104.139604
20
51.968944
70
0
0
VERTEX
8
Layer 1
10
104.088804
20
51.850675
70
0
0
VERTEX
8
Layer 1
10
104.088804
20
51.850675
70
0
0
SEQEND
8
Layer 1
0
POLYLINE
8
Layer 1
62
7
70
1
10
0.000000
20
0.000000
66
1
0
VERTEX
8
Layer 1
10
106.023171
20
52.809259
70
0
0
VERTEX
8
Layer 1
10
106.098478
20
53.013914
70
0
0
VERTEX
8
Layer 1
10
106.279552
20
53.098713
70
0
0
VERTEX
8
Layer 1
10
106.460890
20
53.013914
70
0
0
VERTEX
8
Layer 1
10
106.535668
20
52.809259
70
0
0
VERTEX
8
Layer 1
10
106.535668
20
52.230616
70
0
0
VERTEX
8
Layer 1
10
107.048430
20
52.230616
70
0
0
VERTEX
8
Layer 1
10
107.229702
20
52.145685
70
0
0
VERTEX
8
Layer 1
10
107.304811
20
51.940898
70
0
0
VERTEX
8
Layer 1
10
107.229702
20
51.736508
70
0
0
VERTEX
8
Layer 1
10
107.048430
20
51.651973
70
0
0
VERTEX
8
Layer 1
10
106.535932
20
51.651709
70
0
0
VERTEX
8
Layer 1
10
106.535932
20
51.073066
70
0
0
VERTEX
8
Layer 1
10
106.460758
20
50.868411
70
0
0
VERTEX
8
Layer 1
10
106.279816
20
50.783612
70
0
0
VERTEX
8
Layer 1
10
106.098345
20
50.868411
70
0
0
VERTEX
8
Layer 1
10
106.023435
20
51.073066
70
0
0
VERTEX
8
Layer 1
10
106.023171
20
51.651973
70
0
0
VERTEX
8
Layer 1
10
105.510938
20
51.651709
70
0
0
VERTEX
8
Layer 1
10
105.329533
20
51.736508
70
0
0
VERTEX
8
Layer 1
10
105.254292
20
51.941162
70
0
0
VERTEX
8
Layer 1
10
105.329533
20
52.145685
70
0
0
VERTEX
8
Layer 1
10
105.510938
20
52.230352
70
0
0
VERTEX
8
Layer 1
10
106.023171
20
52.230616
70
0
0
VERTEX
8
Layer 1
10
106.023171
20
52.809259
70
0
0
VERTEX
8
Layer 1
10
106.023171
20
52.809259
70
0
0
SEQEND
8
Layer 1
0
POLYLINE
8
Layer 1
62
7
70
1
10
0.000000
20
0.000000
66
1
0
VERTEX
8
Layer 1
10
109.355329
20
52.326924
70
0
0
VERTEX
8
Layer 1
10
109.597092
20
52.439935
70
0
0
VERTEX
8
Layer 1
10
109.697170
20
52.712687
70
0
0
VERTEX
8
Layer 1
10
109.597092
20
52.985571
70
0
0
VERTEX
8
Layer 1
10
109.355329
20
53.098713
70
0
0
VERTEX
8
Layer 1
10
109.113798
20
52.985571
70
0
0
VERTEX
8
Layer 1
10
109.013752
20
52.712687
70
0
0
VERTEX
8
Layer 1
10
109.113798
20
52.439935
70
0
0
VERTEX
8
Layer 1
10
109.355329
20
52.326924
70
0
0
VERTEX
8
Layer 1
10
109.355329
20
52.326924
70
0
0
SEQEND
8
Layer 1
0
POLYLINE
8
Layer 1
62
7
70
1
10
0.000000
20
0.000000
66
1
0
VERTEX
8
Layer 1
10
108.671911
20
51.555136
70
0
0
VERTEX
8
Layer 1
10
108.913674
20
51.668146
70
0
0
VERTEX
8
Layer 1
10
109.013752
20
51.940898
70
0
0
VERTEX
8
Layer 1
10
108.913674
20
52.213881
70
0
0
VERTEX
8
Layer 1
10
108.671911
20
52.326924
70
0
0
VERTEX
8
Layer 1
10
108.430281
20
52.213881
70
0
0
VERTEX
8
Layer 1
10
108.330334
20
51.940898
70
0
0
VERTEX
8
Layer 1
10
108.430281
20
51.668146
70
0
0
VERTEX
8
Layer 1
10
108.671911
20
51.555136
70
0
0
VERTEX
8
Layer 1
10
108.671911
20
51.555136
70
0
0
SEQEND
8
Layer 1
0
POLYLINE
8
Layer 1
62
7
70
1
10
0.000000
20
0.000000
66
1
0
VERTEX
8
Layer 1
10
110.380853
20
51.940898
70
0
0
VERTEX
8
Layer 1
10
110.280774
20
51.668146
70
0
0
VERTEX
8
Layer 1
10
110.039011
20
51.555136
70
0
0
VERTEX
8
Layer 1
10
109.797249
20
51.668146
70
0
0
VERTEX
8
Layer 1
10
109.697170
20
51.940898
70
0
0
VERTEX
8
Layer 1
10
109.797249
20
52.213881
70
0
0
VERTEX
8
Layer 1
10
110.039011
20
52.326924
70
0
0
VERTEX
8
Layer 1
10
110.280774
20
52.213881
70
0
0
VERTEX
8
Layer 1
10
110.380853
20
51.940898
70
0
0
VERTEX
8
Layer 1
10
110.380853
20
51.940898
70
0
0
SEQEND
8
Layer 1
0
POLYLINE
8
Layer 1
62
7
70
1
10
0.000000
20
0.000000
66
1
0
VERTEX
8
Layer 1
10
109.355329
20
50.783612
70
0
0
VERTEX
8
Layer 1
10
109.597092
20
50.896622
70
0
0
VERTEX
8
Layer 1
10
109.697170
20
51.169374
70
0
0
VERTEX
8
Layer 1
10
109.597092
20
51.442126
70
0
0
VERTEX
8
Layer 1
10
109.355329
20
51.555136
70
0
0
VERTEX
8
Layer 1
10
109.113798
20
51.442126
70
0
0
VERTEX
8
Layer 1
10
109.013752
20
51.169374
70
0
0
VERTEX
8
Layer 1
10
109.113798
20
50.896622
70
0
0
VERTEX
8
Layer 1
10
109.355329
20
50.783612
70
0
0
VERTEX
8
Layer 1
10
109.355329
20
50.783612
70
0
0
SEQEND
8
Layer 1
 0 
ENDSEC
 0 
EOF