<svg width="771" height="340" viewBox="0 0 771 340" fill="none" xmlns="http://www.w3.org/2000/svg">
<rect width="771" height="340" fill="#1E1E1E"/>
<rect width="771" height="340" fill="white"/>
<mask id="path-1-inside-1_0_1" fill="white">
<path d="M402.286 164.143H407.429V159H422.857V164.143H428V200.143H417.714V169.286H402.286V200.143H392V159H402.286V164.143Z"/>
<path d="M373 149H383.286V159.286H373V149ZM373 164.429H383.286V200.429H373V164.429Z"/>
<path d="M357 149H367.286V200.429H357V149Z"/>
<path d="M321.143 195H316V179.571H321.143V174.429H341.714V169.286H316V164.143H321.143V159H346.857V164.143H352V200.143H341.714V195H336.571V200.143H321.143V195ZM326.286 189.857H341.714V184.714H326.286V189.857Z"/>
<path d="M285 164.429H290.143V154.143H295.286V149H300.429V164.429H310.714V174.714H300.429V190.143H310.714V200.429H295.286V195.286H290.143V174.714H285V164.429Z"/>
<path d="M249.143 195H244V179.571H249.143V174.429H269.714V169.286H244V164.143H249.143V159H274.857V164.143H280V200.143H269.714V195H264.571V200.143H249.143V195ZM254.286 189.857H269.714V184.714H254.286V189.857Z"/>
<path d="M228.714 185H239V195.286H233.857V200.429H208.143V195.286H203V154.143H208.143V149H233.857V154.143H239V164.429H228.714V159.286H218.429V164.429H213.286V185H218.429V190.143H228.714V185Z"/>
<path fill-rule="evenodd" clip-rule="evenodd" d="M393.407 144.029C392.975 145.153 392.559 146.324 392.228 147.492C392.08 148.017 392 148.576 392 149.156V151.344C392 154.364 394.169 156.812 396.844 156.812C398.156 156.812 399.346 156.223 400.219 155.267C400.414 155.052 400.612 154.829 400.812 154.602C402.186 153.049 403.695 151.344 405.562 151.344H409.438C411.305 151.344 412.814 153.049 414.188 154.602C414.388 154.829 414.586 155.052 414.782 155.267C415.654 156.223 416.844 156.812 418.156 156.812C420.831 156.812 423 154.364 423 151.344V149.156C423 148.576 422.92 148.017 422.772 147.492C422.441 146.324 422.025 145.153 421.593 144.029C421.534 143.877 421.47 143.727 421.401 143.582C420.445 141.57 419.197 139.422 417.813 137.758C416.93 136.695 415.674 136.031 414.281 136.031H400.719C399.326 136.031 398.07 136.695 397.187 137.758C395.803 139.422 394.555 141.57 393.599 143.582C393.53 143.727 393.466 143.877 393.407 144.029ZM400.718 140.406C400.719 139.802 401.153 139.312 401.687 139.312C402.223 139.312 402.656 139.802 402.655 140.406V142.593H404.593C405.128 142.594 405.562 143.083 405.562 143.688C405.562 144.291 405.128 144.781 404.593 144.78L402.656 144.781V146.968C402.655 147.572 402.222 148.062 401.688 148.062C401.152 148.062 400.718 147.572 400.719 146.968L400.718 144.78L398.782 144.781C398.247 144.78 397.812 144.292 397.812 143.687C397.812 143.084 398.247 142.593 398.782 142.594L400.718 142.593V140.406ZM413.312 142.229C414.026 142.229 414.604 141.576 414.604 140.771C414.604 139.966 414.026 139.312 413.312 139.312C412.599 139.312 412.021 139.966 412.021 140.771C412.021 141.576 412.599 142.229 413.312 142.229ZM410.729 145.146C411.443 145.146 412.021 144.493 412.021 143.688C412.021 142.882 411.443 142.229 410.729 142.229C410.015 142.229 409.438 142.882 409.438 143.688C409.438 144.493 410.015 145.146 410.729 145.146ZM417.188 143.688C417.188 144.493 416.61 145.146 415.896 145.146C415.182 145.146 414.604 144.493 414.604 143.688C414.604 142.882 415.182 142.229 415.896 142.229C416.61 142.229 417.188 142.882 417.188 143.688ZM413.312 148.062C414.026 148.062 414.604 147.409 414.604 146.604C414.604 145.799 414.026 145.146 413.312 145.146C412.599 145.146 412.021 145.799 412.021 146.604C412.021 147.409 412.599 148.062 413.312 148.062Z"/>
</mask>
<path d="M402.286 164.143H407.429V159H422.857V164.143H428V200.143H417.714V169.286H402.286V200.143H392V159H402.286V164.143Z" stroke="black" stroke-width="6" mask="url(#path-1-inside-1_0_1)"/>
<path d="M373 149H383.286V159.286H373V149ZM373 164.429H383.286V200.429H373V164.429Z" stroke="black" stroke-width="6" mask="url(#path-1-inside-1_0_1)"/>
<path d="M357 149H367.286V200.429H357V149Z" stroke="black" stroke-width="6" mask="url(#path-1-inside-1_0_1)"/>
<path d="M321.143 195H316V179.571H321.143V174.429H341.714V169.286H316V164.143H321.143V159H346.857V164.143H352V200.143H341.714V195H336.571V200.143H321.143V195ZM326.286 189.857H341.714V184.714H326.286V189.857Z" stroke="black" stroke-width="6" mask="url(#path-1-inside-1_0_1)"/>
<path d="M285 164.429H290.143V154.143H295.286V149H300.429V164.429H310.714V174.714H300.429V190.143H310.714V200.429H295.286V195.286H290.143V174.714H285V164.429Z" stroke="black" stroke-width="6" mask="url(#path-1-inside-1_0_1)"/>
<path d="M249.143 195H244V179.571H249.143V174.429H269.714V169.286H244V164.143H249.143V159H274.857V164.143H280V200.143H269.714V195H264.571V200.143H249.143V195ZM254.286 189.857H269.714V184.714H254.286V189.857Z" stroke="black" stroke-width="6" mask="url(#path-1-inside-1_0_1)"/>
<path d="M228.714 185H239V195.286H233.857V200.429H208.143V195.286H203V154.143H208.143V149H233.857V154.143H239V164.429H228.714V159.286H218.429V164.429H213.286V185H218.429V190.143H228.714V185Z" stroke="black" stroke-width="6" mask="url(#path-1-inside-1_0_1)"/>
<path fill-rule="evenodd" clip-rule="evenodd" d="M393.407 144.029C392.975 145.153 392.559 146.324 392.228 147.492C392.08 148.017 392 148.576 392 149.156V151.344C392 154.364 394.169 156.812 396.844 156.812C398.156 156.812 399.346 156.223 400.219 155.267C400.414 155.052 400.612 154.829 400.812 154.602C402.186 153.049 403.695 151.344 405.562 151.344H409.438C411.305 151.344 412.814 153.049 414.188 154.602C414.388 154.829 414.586 155.052 414.782 155.267C415.654 156.223 416.844 156.812 418.156 156.812C420.831 156.812 423 154.364 423 151.344V149.156C423 148.576 422.92 148.017 422.772 147.492C422.441 146.324 422.025 145.153 421.593 144.029C421.534 143.877 421.47 143.727 421.401 143.582C420.445 141.57 419.197 139.422 417.813 137.758C416.93 136.695 415.674 136.031 414.281 136.031H400.719C399.326 136.031 398.07 136.695 397.187 137.758C395.803 139.422 394.555 141.57 393.599 143.582C393.53 143.727 393.466 143.877 393.407 144.029ZM400.718 140.406C400.719 139.802 401.153 139.312 401.687 139.312C402.223 139.312 402.656 139.802 402.655 140.406V142.593H404.593C405.128 142.594 405.562 143.083 405.562 143.688C405.562 144.291 405.128 144.781 404.593 144.78L402.656 144.781V146.968C402.655 147.572 402.222 148.062 401.688 148.062C401.152 148.062 400.718 147.572 400.719 146.968L400.718 144.78L398.782 144.781C398.247 144.78 397.812 144.292 397.812 143.687C397.812 143.084 398.247 142.593 398.782 142.594L400.718 142.593V140.406ZM413.312 142.229C414.026 142.229 414.604 141.576 414.604 140.771C414.604 139.966 414.026 139.312 413.312 139.312C412.599 139.312 412.021 139.966 412.021 140.771C412.021 141.576 412.599 142.229 413.312 142.229ZM410.729 145.146C411.443 145.146 412.021 144.493 412.021 143.688C412.021 142.882 411.443 142.229 410.729 142.229C410.015 142.229 409.438 142.882 409.438 143.688C409.438 144.493 410.015 145.146 410.729 145.146ZM417.188 143.688C417.188 144.493 416.61 145.146 415.896 145.146C415.182 145.146 414.604 144.493 414.604 143.688C414.604 142.882 415.182 142.229 415.896 142.229C416.61 142.229 417.188 142.882 417.188 143.688ZM413.312 148.062C414.026 148.062 414.604 147.409 414.604 146.604C414.604 145.799 414.026 145.146 413.312 145.146C412.599 145.146 412.021 145.799 412.021 146.604C412.021 147.409 412.599 148.062 413.312 148.062Z" stroke="black" stroke-width="6" mask="url(#path-1-inside-1_0_1)"/>
</svg>
